<?xml version="1.0" standalone="no"?><!DOCTYPE svg PUBLIC "-//W3C//DTD SVG 1.1//EN" "http://www.w3.org/Graphics/SVG/1.1/DTD/svg11.dtd"><svg t="1594697867581" class="icon" viewBox="0 0 1024 1024" version="1.1" xmlns="http://www.w3.org/2000/svg" p-id="2397" xmlns:xlink="http://www.w3.org/1999/xlink" width="64" height="64"><defs><style type="text/css"></style></defs><path d="M733.996047 446.190155C737.993081 188.384531 524.718673 71.574129 510.388293 64.019059l0-0.398066c0 0-0.12996 0.066515-0.381693 0.197498-0.251733-0.130983-0.381693-0.197498-0.381693-0.197498l0 0.398066c-14.329357 7.55507-227.604788 124.365472-223.607754 382.171096-43.427068 27.916816-88.921215 77.54819-81.683371 163.367765s90.989317 142.68777 123.042337 139.586129 22.747073-26.883277 22.747073-26.883277l10.991332-44.460608c0 0 47.255257 71.478961 62.419631 71.464635 13.604856-1.085728 78.347392-0.118704 86.089727 0.002047l0 0.01228c0 0 0.138146-0.002047 0.381693-0.00614 0.24457 0.004093 0.381693 0.00614 0.381693 0.00614l0-0.01228c7.742335-0.12075 72.484871-1.087774 86.089727-0.002047 15.165398 0.014326 62.420655-71.464635 62.420655-71.464635l10.991332 44.460608c0 0-9.305947 23.781636 22.747073 26.883277 32.05302 3.101641 115.804493-53.766554 123.042337-139.586129S777.423115 474.107995 733.996047 446.190155zM510.0066 442.395736c-6.070252-0.085958-85.383646-2.979868-92.675726-95.122451 2.654456-87.596034 86.430488-95.333252 92.675726-95.788623 6.245238 0.455371 90.02127 8.191566 92.675726 95.788623C595.390245 439.415868 516.077875 442.308755 510.0066 442.395736z" p-id="2398" fill="#dd1800"></path><path d="M463.170898 886.662075c0 10.469446-8.487302 18.955724-18.955724 18.955724l0 0c-10.469446 0-18.955724-8.487302-18.955724-18.955724l0-93.747127c0-10.469446 8.487302-18.955724 18.955724-18.955724l0 0c10.469446 0 18.955724 8.487302 18.955724 18.955724L463.170898 886.662075z" p-id="2399" fill="#dd1800"></path><path d="M532.791535 937.412946c0 10.611685-8.602935 19.21462-19.21462 19.21462l0 0c-10.611685 0-19.21462-8.602935-19.21462-19.21462L494.362294 797.998733c0-10.611685 8.602935-19.21462 19.21462-19.21462l0 0c10.611685 0 19.21462 8.602935 19.21462 19.21462L532.791535 937.412946z" p-id="2400" fill="#dd1800"></path><path d="M596.897575 864.603687c0 10.469446-8.487302 18.955724-18.955724 18.955724l0 0c-10.469446 0-18.955724-8.487302-18.955724-18.955724l0-66.86385c0-10.469446 8.487302-18.955724 18.955724-18.955724l0 0c10.469446 0 18.955724 8.487302 18.955724 18.955724L596.897575 864.603687z" p-id="2401" fill="#dd1800"></path></svg>