<?xml version="1.0" standalone="no"?><!DOCTYPE svg PUBLIC "-//W3C//DTD SVG 1.1//EN" "http://www.w3.org/Graphics/SVG/1.1/DTD/svg11.dtd"><svg t="1594901113376" class="icon" viewBox="0 0 1024 1024" version="1.1" xmlns="http://www.w3.org/2000/svg" p-id="3973" xmlns:xlink="http://www.w3.org/1999/xlink" width="64" height="64"><defs><style type="text/css"></style></defs><path d="M512 81.92a430.08 430.08 0 1 0 0 860.16 430.08 430.08 0 0 0 0-860.16z m239.49312 423.40352a83.68128 83.68128 0 0 1-9.78944 28.34432 58.9824 58.9824 0 0 1-15.03232 17.98144c-5.40672 4.096-9.4208 5.40672-11.71456 4.096a10.77248 10.77248 0 0 1-4.75136-8.02816 56.64768 56.64768 0 0 1 1.96608-19.98848 55.00928 55.00928 0 0 0-2.21184-37.02784 74.1376 74.1376 0 0 0-28.59008-27.36128 103.8336 103.8336 0 0 1-35.10272-36.16768 332.26752 332.26752 0 0 1-20.48-39.97696c-5.07904-10.77248-10.07616-15.68768-15.1552-15.07328-5.07904 0.57344-8.97024 7.04512-10.81344 12.94336l-21.54496 64.7168-53.98528 153.1904-29.16352 82.61632c-2.74432 8.97024-8.97024 14.45888-15.81056 24.24832a81.92 81.92 0 0 1-27.8528 24.41216c-13.06624 6.88128-27.32032 11.0592-42.02496 12.288a140.73856 140.73856 0 0 1-55.86944-7.3728 119.1936 119.1936 0 0 1-79.6672-80.93696c-4.5056-16.30208-3.76832-33.5872 2.048-49.43872 6.67648-16.7936 19.57888-30.35136 36.0448-37.76512a114.36032 114.36032 0 0 1 52.87936-13.39392c16.09728 0 32.07168 2.4576 47.39072 7.3728 12.9024 4.01408 25.1904 9.70752 36.57728 16.95744 10.24 6.67648 20.56192 11.38688 25.06752 15.5648l53.94432-153.23136c15.48288-43.70432 34.52928-98.63168 53.94432-153.27232 3.80928-10.77248 6.5536-15.89248 14.336-20.72576a32.3584 32.3584 0 0 1 25.43616-3.93216c7.08608 1.06496 13.23008 5.3248 16.67072 11.59168 3.76832 7.3728 6.59456 15.1552 8.35584 23.22432 2.29376 9.46176 5.40672 20.2752 9.25696 32.68608 4.66944 13.9264 11.22304 27.19744 19.456 39.36256 6.10304 10.36288 13.35296 20.02944 21.58592 28.75392 6.5536 6.71744 12.9024 12.94336 18.71872 18.67776 5.85728 5.9392 11.264 12.288 16.1792 19.0464 6.30784 9.25696 11.30496 19.37408 14.7456 30.06464 4.75136 11.18208 6.47168 23.47008 4.9152 35.55328z" p-id="3974" fill="#dd1800"></path></svg>