<?xml version="1.0" standalone="no"?><!DOCTYPE svg PUBLIC "-//W3C//DTD SVG 1.1//EN" "http://www.w3.org/Graphics/SVG/1.1/DTD/svg11.dtd"><svg t="1594902257274" class="icon" viewBox="0 0 1024 1024" version="1.1" xmlns="http://www.w3.org/2000/svg" p-id="3392" xmlns:xlink="http://www.w3.org/1999/xlink" width="64" height="64"><defs><style type="text/css"></style></defs><path d="M865.336374 379.030569" p-id="3393"></path><path d="M511.707334 959.224718c-247.174496 0-447.549106-200.37461-447.549106-447.549106S264.533862 64.12753 511.707334 64.12753s447.549106 200.37461 447.549106 447.549106S758.88183 959.224718 511.707334 959.224718zM683.550121 416.702564c0.37146-64.528666-27.208689-80.500429-82.741469-47.913243-55.532781 32.587186-111.251803 64.85203-167.156044 96.79351-15.035438 8.590656-25.988908 17.182334-32.936133 25.77299l0-113.945145c0-16.807804-13.625322-30.433126-30.433126-30.433126s-30.433126 13.625322-30.433126 30.433126l0 268.528849c0 16.807804 13.625322 30.433126 30.433126 30.433126s30.433126-13.625322 30.433126-30.433126L400.716474 535.636327c6.948249 8.590656 17.900695 17.182334 32.936133 25.77299 55.904241 31.94148 111.623263 64.206324 167.156044 96.79351 55.532781 32.587186 83.112929 16.616446 82.741469-47.913243C683.178661 545.760918 683.178661 481.232253 683.550121 416.702564z" p-id="3394"></path></svg>