<?xml version="1.0" standalone="no"?><!DOCTYPE svg PUBLIC "-//W3C//DTD SVG 1.1//EN" "http://www.w3.org/Graphics/SVG/1.1/DTD/svg11.dtd"><svg t="1594903468531" class="icon" viewBox="0 0 1024 1024" version="1.1" xmlns="http://www.w3.org/2000/svg" p-id="12098" xmlns:xlink="http://www.w3.org/1999/xlink" width="64" height="64"><defs><style type="text/css"></style></defs><path d="M512 64C264.48 64 64 264.48 64 512s200.48 448 448 448 448-200.48 448-448S759.52 64 512 64z m-44.8 592.48a34.72 34.72 0 0 1-34.72 34.72h-20.16a34.72 34.72 0 0 1-34.72-34.72v-289a34.72 34.72 0 0 1 34.72-34.72h20.16a34.72 34.72 0 0 1 34.72 34.72z m179.2 0a34.72 34.72 0 0 1-34.72 34.72h-20.16a34.72 34.72 0 0 1-34.72-34.72v-289a34.72 34.72 0 0 1 34.72-34.72h20.16a34.72 34.72 0 0 1 34.72 34.72z" p-id="12099"></path></svg>